<?xml version="1.0" encoding="UTF-8" standalone="no"?><svg xmlns="http://www.w3.org/2000/svg" xmlns:xlink="http://www.w3.org/1999/xlink" fill="#000000" height="476.6" preserveAspectRatio="xMidYMid meet" version="1" viewBox="-5.9 -3.5 510.4 476.6" width="510.4" zoomAndPan="magnify"><g id="change1_1"><path d="M471.281,56.986C449.198,26.303,415.66,5.964,379.268,1.182c-36.007-4.73-71.7,4.844-100.504,26.958 C267.535,36.761,257.885,46.89,250,58.169c0,0,0,0,0-0.001c-7.886-11.278-17.535-21.407-28.763-30.028 C192.431,6.025,156.739-3.549,120.732,1.182c-36.393,4.782-69.93,25.121-92.013,55.804C2.931,92.816-5.89,140.164,3.882,190.307 c0.002,0.011,0.005,0.021,0.008,0.031c0,0,0-0.001,0-0.001c0.761,3.895,2.496,7.656,5.248,10.896l223.711,263.355 c0.005,0.006,0.01,0.011,0.015,0.017c0.825,0.967,1.733,1.882,2.733,2.731c4.506,3.827,10.015,5.699,15.498,5.699 c0.004,0,0.008,0,0.012,0s0.008,0,0.011,0c0.012,0,0.025-0.002,0.037-0.002c-0.002,0-0.004,0-0.007,0 c5.554-0.012,11.074-1.949,15.488-5.716c-0.007,0.007-0.015,0.013-0.022,0.02c0,0,0.001-0.001,0.001-0.001 c0.009-0.008,0.018-0.016,0.027-0.024c0.963-0.822,1.875-1.728,2.721-2.724l223.711-263.355c5.303-6.244,6.847-14.417,4.863-21.77 C504.512,133.369,495.202,90.221,471.281,56.986z M251.106,412.078L49.861,175.17c-5.486-34.718,0.732-66.56,17.743-90.196 c14.392-19.996,36.031-33.222,59.369-36.289c23.319-3.064,46.432,3.137,65.087,17.458c18.654,14.322,30.615,35.05,33.679,58.368 c1.584,12.059,11.878,20.838,23.721,20.837c0.179,0,0.36-0.014,0.539-0.018c0.18,0.004,0.362,0.018,0.541,0.018 c11.842,0,22.137-8.779,23.721-20.837c3.064-23.318,15.025-44.046,33.679-58.368c18.654-14.321,41.768-20.521,65.087-17.458 c23.338,3.066,44.976,16.293,59.368,36.289c17.54,24.371,23.607,57.465,17.2,93.44l6.964-8.198L251.106,412.078z M329.201,252.803 c0,13.23-10.725,23.955-23.955,23.955h-31.8v31.8c0,13.23-10.725,23.955-23.956,23.955c-13.23,0-23.955-10.725-23.955-23.955v-31.8 h-31.8c-13.23,0-23.955-10.725-23.955-23.955c0-13.23,10.725-23.955,23.955-23.955h31.8v-31.8c0-13.23,10.725-23.955,23.955-23.955 c13.231,0,23.956,10.725,23.956,23.955v31.8h31.8C318.476,228.848,329.201,239.573,329.201,252.803z" fill="#5f4bb6"/></g><g id="change2_1"><path d="M6.796,197.947c0.058,0.098,0.113,0.199,0.172,0.296C6.908,198.146,6.854,198.046,6.796,197.947z M7.881,199.61 c0.111,0.156,0.223,0.312,0.338,0.465C8.104,199.921,7.992,199.766,7.881,199.61z M11.886,167.467 c10.083-8.565,25.201-7.335,33.766,2.748l4.209,4.955c-5.486-34.718,0.732-66.56,17.743-90.197 c14.392-19.996,36.031-33.222,59.369-36.289c-13.121,1.722-25.148-7.513-26.872-20.63c-1.724-13.117,7.513-25.148,20.63-26.872 c-36.393,4.782-69.93,25.121-92.013,55.804C2.931,92.816-5.89,140.164,3.882,190.307c0.002,0.011,0.005,0.021,0.008,0.031 C2.283,182.111,5.043,173.28,11.886,167.467z M9.283,201.404c0.026,0.03,0.05,0.06,0.076,0.089L9.283,201.404z M4.375,192.349 c0.011,0.038,0.022,0.076,0.033,0.114C4.397,192.425,4.386,192.387,4.375,192.349z M5.997,196.492 c-0.036-0.071-0.074-0.139-0.109-0.21C5.923,196.352,5.961,196.421,5.997,196.492z M5.044,194.343 c0.025,0.064,0.051,0.127,0.076,0.191C5.094,194.47,5.068,194.407,5.044,194.343z M274.261,124.511 c3.064-23.318,15.025-44.046,33.679-58.368c18.654-14.321,41.768-20.521,65.087-17.458c13.113,1.72,25.148-7.513,26.871-20.631 c1.724-13.117-7.513-25.148-20.63-26.872c-36.007-4.73-71.7,4.844-100.504,26.958c-28.806,22.115-47.275,54.124-52.005,90.13 c-1.723,13.117,7.513,25.148,20.631,26.872c1.059,0.139,2.11,0.207,3.151,0.207C262.382,145.348,272.677,136.569,274.261,124.511z" fill="#5f4bb6"/></g><g id="change3_1"><path d="M249.999,145.331c-0.18,0.004-0.361,0.018-0.539,0.018c-11.843,0.001-22.137-8.778-23.721-20.837 c-3.064-23.318-15.024-44.047-33.679-58.368c-18.655-14.322-41.768-20.523-65.087-17.458c-13.121,1.722-25.148-7.513-26.872-20.63 c-1.724-13.117,7.513-25.148,20.63-26.872c36.007-4.731,71.699,4.843,100.505,26.958c11.228,8.62,20.878,18.75,28.763,30.028 c-12.344,17.654-20.355,38.131-23.241,60.102c-1.723,13.117,7.513,25.148,20.631,26.872 C248.266,145.257,249.135,145.311,249.999,145.331z M269.363,464.589l223.711-263.355c8.565-10.083,7.335-25.201-2.748-33.766 c-10.084-8.565-25.201-7.335-33.766,2.748L232.849,433.571c-8.565,10.083-7.335,25.201,2.748,33.766 c4.506,3.827,10.015,5.699,15.498,5.699C257.881,473.036,264.625,470.166,269.363,464.589z" fill="#5f4bb6"/></g><g id="change4_1"><path d="M329.201,252.803c0,13.23-10.725,23.955-23.955,23.955h-31.8v31.8c0,13.23-10.725,23.955-23.956,23.955 c-13.23,0-23.955-10.725-23.955-23.955v-31.8h-31.8c-13.23,0-23.955-10.725-23.955-23.955c0-13.23,10.725-23.955,23.955-23.955h31.8 v-31.8c0-13.23,10.725-23.955,23.955-23.955c13.231,0,23.956,10.725,23.956,23.955v31.8h31.8 C318.476,228.848,329.201,239.573,329.201,252.803z" fill="#5f4bb6"/></g><g id="change5_1"><path d="M125.328,36.159c-6.2,0.815-11.886-3.551-12.701-9.751s3.551-11.886,9.751-12.701s11.886,3.551,12.701,9.751 C135.893,29.658,131.527,35.345,125.328,36.159z M374.673,36.159c6.2,0.815,11.886-3.551,12.701-9.751 c0.815-6.2-3.551-11.886-9.751-12.701s-11.886,3.551-12.701,9.751C364.107,29.658,368.473,35.345,374.673,36.159z M473.341,196.95 c6.2,0.815,11.886-3.551,12.701-9.751c0.815-6.2-3.551-11.886-9.751-12.701c-6.2-0.815-11.886,3.551-12.701,9.751 C462.776,190.449,467.141,196.136,473.341,196.95z M249.035,132.617c6.2,0.815,11.886-3.551,12.701-9.751 c0.815-6.2-3.551-11.886-9.751-12.701c-6.2-0.815-11.886,3.551-12.701,9.751C238.469,126.116,242.835,131.802,249.035,132.617z M249.035,208.274c6.2,0.815,11.886-3.551,12.701-9.751c0.815-6.2-3.551-11.886-9.751-12.701c-6.2-0.815-11.886,3.551-12.701,9.751 C238.469,201.773,242.835,207.459,249.035,208.274z M249.035,319.784c6.2,0.815,11.886-3.551,12.701-9.751 s-3.551-11.886-9.751-12.701c-6.2-0.815-11.886,3.551-12.701,9.751C238.469,313.283,242.835,318.97,249.035,319.784z M192.26,264.029c6.2,0.815,11.886-3.551,12.701-9.751c0.815-6.2-3.551-11.886-9.751-12.701c-6.2-0.815-11.886,3.551-12.701,9.751 C181.695,257.528,186.06,263.215,192.26,264.029z M308.253,264.029c6.2,0.815,11.886-3.551,12.701-9.751 c0.815-6.2-3.551-11.886-9.751-12.701c-6.2-0.815-11.886,3.551-12.701,9.751C297.687,257.528,302.053,263.215,308.253,264.029z M25.921,196.95c6.2,0.815,11.886-3.551,12.701-9.751c0.815-6.2-3.551-11.886-9.751-12.701c-6.2-0.815-11.886,3.551-12.701,9.751 C15.355,190.449,19.721,196.136,25.921,196.95z M249.631,460.306c6.2,0.815,11.886-3.551,12.701-9.751 c0.815-6.2-3.551-11.886-9.751-12.701c-6.2-0.815-11.886,3.551-12.701,9.751S243.431,459.491,249.631,460.306z" fill="#5f4bb6"/></g></svg>