<?xml version="1.0" encoding="UTF-8" standalone="no"?><svg xmlns="http://www.w3.org/2000/svg" xmlns:xlink="http://www.w3.org/1999/xlink" fill="#5f4bb6" height="45" preserveAspectRatio="xMidYMid meet" version="1" viewBox="13.0 9.4 38.0 45.0" width="38" zoomAndPan="magnify"><g id="change1_1"><path d="M43.15,12.45h-2.15c0-1.65-1.35-3-3-3h-12c-1.65,0-3,1.35-3,3h-2.15c-4.33,0-7.85,3.52-7.85,7.85v26.3c0,4.33,3.52,7.85,7.85,7.85h22.3c4.33,0,7.85-3.52,7.85-7.85V20.31c0-4.33-3.52-7.85-7.85-7.85Zm-17.15-1h12c.55,0,1,.45,1,1v5c0,.55-.45,1-1,1h-12c-.55,0-1-.45-1-1v-5c0-.55,.45-1,1-1Zm-2.82,7c.41,1.16,1.51,2,2.82,2h12c1.3,0,2.4-.84,2.82-2h2.21c1.09,0,1.97,.88,1.97,1.97v26.05c0,1.09-.88,1.97-1.97,1.97H20.97c-1.09,0-1.97-.89-1.97-1.97V20.43c0-1.09,.88-1.97,1.97-1.97h2.21Zm25.82,28.15c0,3.23-2.62,5.85-5.85,5.85H20.85c-3.23,0-5.85-2.62-5.85-5.85V20.31c0-3.23,2.62-5.85,5.85-5.85h2.15v2h-2.03c-2.19,0-3.97,1.78-3.97,3.97v26.05c0,2.19,1.78,3.97,3.97,3.97h22.05c2.19,0,3.97-1.78,3.97-3.97V20.43c0-2.19-1.78-3.97-3.97-3.97h-2.03v-2h2.15c3.23,0,5.85,2.62,5.85,5.85v26.3Z"/></g><g id="change1_2"><path d="M26,33.45h4c.75,0,1.46-.27,2.01-.77,.41-.37,.44-1,.07-1.41-.37-.41-1-.44-1.41-.07-.18,.17-.42,.26-.67,.26h-4c-.55,0-1-.45-1-1v-4c0-.55,.45-1,1-1h4c.08,0,.16,0,.23,.03,.54,.12,1.08-.21,1.2-.74,.13-.54-.21-1.08-.74-1.2-.22-.05-.46-.08-.69-.08h-4c-1.65,0-3,1.35-3,3v4c0,1.65,1.35,3,3,3Z"/></g><g id="change1_3"><path d="M28.71,26.75c-.39-.39-1.02-.39-1.41,0s-.39,1.02,0,1.41l2,2c.2,.2,.45,.29,.71,.29s.51-.1,.71-.29l4-4c.39-.39,.39-1.02,0-1.41s-1.02-.39-1.41,0l-3.29,3.29-1.29-1.29Z"/></g><g id="change1_4"><path d="M26,45.45h4c.75,0,1.46-.27,2.01-.77,.41-.37,.44-1,.07-1.41s-1-.44-1.41-.07c-.18,.17-.42,.26-.67,.26h-4c-.55,0-1-.45-1-1v-4c0-.55,.45-1,1-1h4c.08,0,.16,0,.23,.03,.54,.13,1.08-.21,1.2-.74,.13-.54-.21-1.08-.74-1.2-.22-.05-.46-.08-.69-.08h-4c-1.65,0-3,1.35-3,3v4c0,1.65,1.35,3,3,3Z"/></g><g id="change1_5"><path d="M33.29,36.75l-3.29,3.29-1.29-1.29c-.39-.39-1.02-.39-1.41,0s-.39,1.02,0,1.41l2,2c.2,.2,.45,.29,.71,.29s.51-.1,.71-.29l4-4c.39-.39,.39-1.02,0-1.41s-1.02-.39-1.41,0Z"/></g></svg>