<?xml version="1.0" encoding="UTF-8" standalone="no"?><svg xmlns="http://www.w3.org/2000/svg" xmlns:xlink="http://www.w3.org/1999/xlink" fill="#000000" height="476.6" preserveAspectRatio="xMidYMid meet" version="1" viewBox="-5.9 -3.5 511.8 476.6" width="511.8" zoomAndPan="magnify"><g id="change1_1"><path d="M498.763,185.373c-0.003-0.22-0.007-0.441-0.017-0.661c-0.008-0.201-0.021-0.4-0.034-0.6 c-0.012-0.18-0.025-0.361-0.041-0.541c-0.021-0.234-0.046-0.467-0.074-0.7c-0.017-0.141-0.034-0.281-0.054-0.422 c-0.036-0.262-0.076-0.522-0.12-0.782c-0.019-0.111-0.039-0.223-0.06-0.334c-0.052-0.279-0.108-0.557-0.169-0.832 c-0.021-0.095-0.043-0.189-0.065-0.284c-0.06-0.255-0.122-0.51-0.191-0.762c6.573-46.092-2.737-89.237-26.656-122.471 C449.198,26.303,415.66,5.964,379.268,1.182c-36.007-4.732-71.7,4.844-100.504,26.958c-11.229,8.62-20.878,18.75-28.764,30.028 c-7.886-11.278-17.535-21.407-28.763-30.028C192.431,6.025,156.739-3.549,120.732,1.182c-36.393,4.782-69.93,25.121-92.013,55.804 C2.931,92.816-5.89,140.164,3.882,190.307c0.001,0.003,0.001,0.005,0.002,0.008c0.788,4.059,2.599,7.751,5.156,10.798 c0.034,0.04,0.064,0.081,0.098,0.121l223.711,263.355c0.005,0.006,0.01,0.011,0.015,0.017c0.825,0.967,1.733,1.882,2.733,2.731 c4.506,3.827,10.015,5.699,15.498,5.699c6.786,0,13.531-2.869,18.269-8.447l223.711-263.355c0.034-0.04,0.064-0.081,0.098-0.121 c0.158-0.189,0.311-0.381,0.464-0.575c0.094-0.119,0.189-0.236,0.28-0.356c0.15-0.198,0.294-0.4,0.438-0.603 c0.087-0.122,0.177-0.243,0.261-0.367c0.134-0.197,0.262-0.398,0.39-0.599c0.086-0.134,0.174-0.266,0.257-0.401 c0.115-0.189,0.224-0.382,0.334-0.574c0.086-0.15,0.176-0.299,0.259-0.451c0.098-0.179,0.189-0.363,0.282-0.546 c0.085-0.167,0.175-0.332,0.256-0.5c0.086-0.179,0.165-0.362,0.247-0.543c0.079-0.174,0.162-0.347,0.236-0.522 c0.082-0.193,0.155-0.389,0.232-0.585c0.066-0.167,0.136-0.333,0.197-0.501c0.077-0.21,0.146-0.425,0.218-0.638 c0.052-0.156,0.109-0.311,0.158-0.467c0.066-0.212,0.124-0.428,0.184-0.642c0.046-0.161,0.095-0.322,0.138-0.484 c0.052-0.199,0.095-0.401,0.141-0.602c0.042-0.181,0.088-0.362,0.125-0.544c0.038-0.182,0.068-0.367,0.102-0.551 c0.037-0.204,0.077-0.408,0.109-0.613c0.026-0.167,0.045-0.336,0.068-0.504c0.03-0.226,0.062-0.451,0.086-0.677 c0.016-0.155,0.027-0.312,0.04-0.468c0.021-0.242,0.042-0.484,0.055-0.726c0.008-0.153,0.012-0.306,0.018-0.46 c0.009-0.244,0.017-0.488,0.019-0.732c0-0.053,0.004-0.104,0.004-0.157C498.772,185.606,498.765,185.49,498.763,185.373z M67.604,84.973c14.392-19.996,36.031-33.222,59.369-36.289c23.319-3.064,46.432,3.137,65.087,17.458 c18.654,14.322,30.615,35.05,33.679,58.368c1.584,12.059,11.878,20.838,23.721,20.837c0.118,0,0.239-0.01,0.357-0.012 c0.149,0.004,0.297,0.001,0.446,0.003c0.092,0.001,0.185,0.009,0.277,0.009c0.053,0,0.104-0.007,0.157-0.007 c0.634-0.004,1.263-0.033,1.886-0.087c0.115-0.01,0.229-0.022,0.344-0.033c0.625-0.063,1.245-0.147,1.858-0.258 c0.098-0.018,0.195-0.039,0.293-0.058c0.629-0.122,1.253-0.264,1.866-0.435c0.055-0.015,0.109-0.034,0.165-0.05 c0.617-0.177,1.225-0.377,1.822-0.602c0.04-0.015,0.08-0.028,0.12-0.043c0.602-0.23,1.19-0.489,1.768-0.765 c0.076-0.036,0.154-0.071,0.23-0.108c0.557-0.273,1.1-0.571,1.633-0.885c0.088-0.052,0.175-0.103,0.262-0.156 c0.523-0.318,1.033-0.656,1.53-1.013c0.083-0.059,0.164-0.12,0.246-0.18c0.497-0.367,0.981-0.75,1.449-1.154 c0.065-0.056,0.128-0.114,0.193-0.171c0.478-0.422,0.942-0.859,1.386-1.318c0.035-0.036,0.067-0.073,0.102-0.109 c0.458-0.48,0.9-0.978,1.318-1.496c0.006-0.008,0.013-0.015,0.019-0.022c0.415-0.515,0.805-1.052,1.177-1.602 c0.038-0.055,0.077-0.109,0.114-0.165c0.351-0.529,0.679-1.076,0.989-1.635c0.046-0.083,0.093-0.165,0.137-0.248 c0.297-0.552,0.573-1.119,0.828-1.697c0.042-0.095,0.082-0.19,0.123-0.285c0.248-0.583,0.475-1.178,0.677-1.787 c0.03-0.091,0.058-0.183,0.087-0.275c0.2-0.625,0.379-1.26,0.528-1.909c0.015-0.066,0.027-0.132,0.041-0.198 c0.151-0.684,0.28-1.378,0.373-2.085c3.064-23.318,15.025-44.046,33.679-58.368c18.654-14.321,41.768-20.521,65.087-17.458 c23.338,3.066,44.976,16.293,59.368,36.289c14.797,20.56,21.425,47.328,19.292,76.796h-74.148c-7.068,0-13.775,3.121-18.326,8.529 l-29.205,34.694l-26.634-34.032c-4.652-5.943-11.842-9.336-19.379-9.186c-7.547,0.162-14.575,3.871-18.967,10.009l-49,68.475 l-40.891-67.013c-4.35-7.129-12.098-11.477-20.449-11.477H48.313C46.18,132.301,52.807,105.533,67.604,84.973z M11.828,203.924 c-0.063-0.054-0.125-0.108-0.187-0.162C11.703,203.816,11.765,203.87,11.828,203.924z M12.803,204.717 c-0.066-0.051-0.131-0.103-0.197-0.155C12.672,204.614,12.737,204.666,12.803,204.717z M13.81,205.452 c-0.058-0.04-0.115-0.082-0.172-0.122C13.695,205.37,13.752,205.412,13.81,205.452z M17.158,207.384 c-0.021-0.01-0.043-0.019-0.064-0.029C17.115,207.365,17.136,207.374,17.158,207.384z M14.85,206.133 c-0.027-0.017-0.054-0.035-0.081-0.052C14.797,206.097,14.823,206.116,14.85,206.133z M18.526,207.977 c-0.102-0.041-0.206-0.079-0.307-0.121C18.321,207.898,18.424,207.936,18.526,207.977z M22.261,209.122 c-0.162-0.035-0.323-0.073-0.483-0.112C21.938,209.049,22.099,209.087,22.261,209.122z M21.015,208.814 c-0.151-0.042-0.302-0.084-0.452-0.128C20.713,208.73,20.864,208.772,21.015,208.814z M19.777,208.435 c-0.134-0.045-0.268-0.088-0.401-0.136C19.509,208.347,19.643,208.39,19.777,208.435z M23.52,209.363 c-0.166-0.027-0.329-0.058-0.494-0.088C23.19,209.305,23.354,209.336,23.52,209.363z M24.795,209.537 c-0.162-0.017-0.321-0.041-0.482-0.061C24.474,209.496,24.634,209.519,24.795,209.537z M26.088,209.643 c-0.141-0.008-0.279-0.022-0.419-0.032C25.809,209.621,25.947,209.635,26.088,209.643z M3.555,188.06 c-0.006-0.058-0.008-0.117-0.013-0.176C3.547,187.942,3.549,188.002,3.555,188.06z M9.964,202.147 c-0.035-0.037-0.071-0.074-0.106-0.111C9.893,202.073,9.929,202.11,9.964,202.147z M3.47,186.911c-0.02-0.393-0.03-0.789-0.03-1.186 C3.44,186.122,3.451,186.518,3.47,186.911z M10.725,202.919c0.052,0.051,0.106,0.101,0.159,0.151 C10.831,203.02,10.777,202.97,10.725,202.919z M227.156,449.098c0,0.075,0.001,0.151,0.002,0.226 C227.157,449.249,227.156,449.173,227.156,449.098z M230.388,461.109c0.008,0.013,0.016,0.026,0.023,0.039 C230.403,461.134,230.395,461.122,230.388,461.109z M227.251,451.227c0.004,0.04,0.009,0.079,0.013,0.119 C227.26,451.307,227.255,451.267,227.251,451.227z M227.978,455.312c0.004,0.016,0.008,0.032,0.012,0.048 C227.986,455.344,227.982,455.328,227.978,455.312z M228.59,457.25c0.016,0.045,0.032,0.09,0.048,0.134 C228.622,457.34,228.606,457.295,228.59,457.25z M229.394,459.199c0.019,0.042,0.039,0.084,0.059,0.125 C229.433,459.283,229.413,459.241,229.394,459.199z M227.226,447.235c0.006-0.081,0.014-0.161,0.021-0.241 C227.24,447.074,227.232,447.154,227.226,447.235z M227.479,445.121c0.009-0.056,0.021-0.112,0.031-0.168 C227.501,445.01,227.489,445.065,227.479,445.121z M228.5,441.153c0.024-0.068,0.045-0.135,0.069-0.203 C228.545,441.017,228.523,441.085,228.5,441.153z M229.277,439.214c0.043-0.094,0.085-0.188,0.129-0.282 C229.362,439.026,229.32,439.12,229.277,439.214z M230.261,437.278c0.052-0.092,0.107-0.184,0.16-0.275 C230.368,437.094,230.314,437.185,230.261,437.278z M231.452,435.387c0.046-0.065,0.095-0.129,0.141-0.194 C231.546,435.258,231.497,435.322,231.452,435.387z M251.106,412.078L79.176,209.679h62.067l52.748,86.442 c4.188,6.863,11.538,11.167,19.572,11.462c0.294,0.011,0.587,0.016,0.879,0.016c7.71,0,14.972-3.716,19.479-10.015l51.447-71.895 l25.098,32.069c4.448,5.684,11.222,9.059,18.438,9.188c7.21,0.111,14.105-3.003,18.754-8.525l41.029-48.742h34.349L251.106,412.078z" fill="#5f4bb6"/></g><g id="change2_1"><path d="M249.46,145.348c-11.843,0.001-22.137-8.778-23.721-20.837c-3.064-23.318-15.024-44.047-33.678-58.368 c-18.655-14.322-41.768-20.523-65.087-17.458c-13.121,1.722-25.148-7.513-26.872-20.63c-1.724-13.117,7.513-25.148,20.63-26.872 c36.007-4.731,71.699,4.843,100.505,26.958c28.805,22.115,47.274,54.124,52.005,90.129c1.723,13.117-7.513,25.148-20.63,26.872 C251.552,145.281,250.5,145.348,249.46,145.348z M496.118,190.306c9.772-50.143,0.952-97.49-24.836-133.32 C449.198,26.303,415.66,5.964,379.268,1.182c-36.007-4.732-71.7,4.844-100.504,26.958c-28.806,22.115-47.275,54.124-52.005,90.13 c-1.723,13.117,7.513,25.148,20.631,26.872c13.121,1.72,25.149-7.513,26.871-20.631c3.064-23.318,15.025-44.046,33.679-58.368 c18.654-14.321,41.768-20.521,65.087-17.458c23.338,3.066,44.976,16.293,59.368,36.289c17.983,24.986,23.913,59.14,16.697,96.169 c-2.531,12.986,5.945,25.565,18.93,28.095c1.548,0.302,3.089,0.447,4.608,0.447C483.863,209.683,493.889,201.744,496.118,190.306z" fill="#5f4bb6"/></g><g id="change3_1"><path d="M250.54,145.348c-1.04,0-2.091-0.068-3.151-0.207c-13.117-1.724-22.354-13.754-20.631-26.872 c4.731-36.006,23.199-68.015,52.005-90.13C307.568,6.026,343.261-3.548,379.268,1.182c13.118,1.724,22.354,13.755,20.63,26.872 c-1.723,13.117-13.758,22.351-26.871,20.631c-23.32-3.063-46.434,3.137-65.087,17.458c-18.655,14.322-30.616,35.05-33.679,58.368 C272.677,136.569,262.382,145.348,250.54,145.348z M6.204,174.553c-0.106,0.201-0.211,0.403-0.311,0.608 C5.993,174.957,6.098,174.755,6.204,174.553z M12.939,166.625c-0.121,0.091-0.238,0.187-0.357,0.28 C12.701,166.812,12.818,166.716,12.939,166.625z M9.826,169.446c0.159-0.171,0.32-0.341,0.484-0.508 C10.146,169.105,9.985,169.275,9.826,169.446z M13.909,165.926c-0.125,0.085-0.246,0.175-0.368,0.262 C13.663,166.101,13.785,166.011,13.909,165.926z M14.503,165.539c0.135-0.087,0.269-0.176,0.406-0.26 C14.772,165.362,14.638,165.452,14.503,165.539z M8.281,171.287c0.17-0.225,0.345-0.447,0.523-0.666 C8.625,170.841,8.451,171.063,8.281,171.287z M9.022,170.358c0.169-0.202,0.341-0.4,0.516-0.596 C9.362,169.958,9.19,170.157,9.022,170.358z M6.98,173.19c0.148-0.241,0.301-0.478,0.457-0.713 C7.281,172.713,7.128,172.95,6.98,173.19z M6.411,174.167c0.126-0.229,0.257-0.455,0.39-0.679 C6.668,173.713,6.536,173.939,6.411,174.167z M15.476,164.948c0.153-0.088,0.303-0.179,0.458-0.263 C15.779,164.769,15.628,164.86,15.476,164.948z M7.602,172.231c0.164-0.24,0.332-0.476,0.504-0.709 C7.933,171.756,7.765,171.992,7.602,172.231z M10.697,168.555c0.143-0.139,0.286-0.277,0.432-0.412 C10.983,168.279,10.84,168.417,10.697,168.555z M16.979,164.147c-0.173,0.083-0.341,0.174-0.511,0.262 C16.638,164.321,16.807,164.23,16.979,164.147z M24.185,161.989c0.221-0.03,0.441-0.061,0.664-0.084 C24.628,161.928,24.406,161.96,24.185,161.989z M27.233,161.773c-0.239,0.001-0.477,0.01-0.716,0.018 C26.755,161.783,26.993,161.775,27.233,161.773z M12.008,167.369c-0.04,0.034-0.082,0.064-0.122,0.098 c-0.089,0.076-0.172,0.155-0.259,0.232C11.753,167.588,11.879,167.477,12.008,167.369z M23.668,162.059 c-0.201,0.031-0.4,0.071-0.6,0.107C23.268,162.13,23.468,162.09,23.668,162.059z M26.043,161.809 c-0.239,0.013-0.476,0.034-0.714,0.054C25.567,161.843,25.805,161.822,26.043,161.809z M17.503,163.908 c0.18-0.082,0.359-0.167,0.542-0.245C17.863,163.74,17.683,163.826,17.503,163.908z M19.13,163.234 c-0.177,0.065-0.349,0.138-0.524,0.207C18.78,163.372,18.954,163.299,19.13,163.234z M21.359,162.537 c-0.161,0.042-0.32,0.091-0.48,0.136C21.039,162.628,21.198,162.579,21.359,162.537z M19.75,163.022 c0.162-0.054,0.321-0.113,0.484-0.164C20.072,162.909,19.912,162.968,19.75,163.022z M22.505,162.27 c-0.178,0.037-0.354,0.081-0.53,0.122C22.151,162.352,22.327,162.307,22.505,162.27z M3.669,182.446 c-0.02,0.143-0.038,0.287-0.055,0.431C3.631,182.733,3.649,182.589,3.669,182.446z M4.711,193.423 c-0.061-0.18-0.126-0.359-0.183-0.541C4.585,193.063,4.65,193.243,4.711,193.423z M4.904,193.987 c0.07,0.189,0.147,0.374,0.221,0.561C5.051,194.361,4.973,194.175,4.904,193.987z M4.207,191.757 c0.047,0.18,0.101,0.356,0.152,0.534C4.308,192.112,4.253,191.935,4.207,191.757z M5.587,195.633 c-0.085-0.186-0.173-0.371-0.253-0.56C5.413,195.261,5.502,195.447,5.587,195.633z M3.94,190.611 c0.04,0.193,0.088,0.384,0.133,0.575C4.028,190.994,3.98,190.803,3.94,190.611z M3.729,189.445c0.034,0.216,0.076,0.429,0.115,0.643 C3.804,189.874,3.762,189.66,3.729,189.445z M7.596,199.21c0.086,0.126,0.176,0.248,0.265,0.372 C7.773,199.458,7.682,199.335,7.596,199.21z M5.817,196.139c0.086,0.178,0.179,0.351,0.269,0.526 C5.996,196.49,5.903,196.316,5.817,196.139z M8.578,200.539c-0.094-0.12-0.19-0.238-0.283-0.359 C8.387,200.301,8.483,200.419,8.578,200.539z M7.21,198.618c-0.087-0.136-0.177-0.27-0.261-0.408 C7.033,198.347,7.123,198.482,7.21,198.618z M6.623,197.651c-0.089-0.155-0.182-0.309-0.268-0.466 C6.441,197.341,6.534,197.495,6.623,197.651z M3.5,184.116c0.012-0.183,0.025-0.366,0.042-0.547 C3.525,183.751,3.512,183.934,3.5,184.116z M4.297,179.376c0.026-0.096,0.054-0.192,0.082-0.287 C4.351,179.184,4.323,179.28,4.297,179.376z M3.664,188.968c-0.032-0.234-0.065-0.468-0.09-0.705 C3.6,188.499,3.633,188.733,3.664,188.968z M4.738,177.948c-0.038,0.111-0.076,0.222-0.113,0.333 C4.661,178.17,4.7,178.059,4.738,177.948z M5.001,177.216c0.053-0.139,0.108-0.276,0.163-0.413 C5.109,176.94,5.053,177.077,5.001,177.216z M3.849,181.332c-0.021,0.113-0.041,0.226-0.061,0.339 C3.808,181.558,3.828,181.445,3.849,181.332z M4.016,180.507c0.022-0.098,0.045-0.195,0.068-0.293 C4.061,180.311,4.038,180.409,4.016,180.507z M251.106,412.078L79.176,209.679H27.395c-7.371,0-13.961-3.331-18.355-8.568 c0.034,0.04,0.064,0.082,0.098,0.122l223.711,263.355c0.005,0.006,0.01,0.011,0.015,0.017c-7.494-8.784-7.732-21.951-0.015-31.035 L251.106,412.078z M3.48,187.07c0.014,0.25,0.035,0.497,0.057,0.744C3.515,187.567,3.493,187.319,3.48,187.07z M5.423,176.177 c0.075-0.172,0.153-0.342,0.231-0.512C5.576,175.835,5.498,176.005,5.423,176.177z M3.448,185.381 c0.003-0.225,0.008-0.449,0.017-0.672C3.456,184.932,3.452,185.156,3.448,185.381z M3.444,185.878 c0.001,0.248,0.01,0.497,0.019,0.745C3.453,186.375,3.445,186.128,3.444,185.878z" fill="#5f4bb6"/></g><g id="change4_1"><path d="M214.442,307.599c-0.292,0-0.585-0.005-0.879-0.016c-8.034-0.294-15.385-4.599-19.572-11.462l-52.748-86.442 H27.395c-13.23,0-23.955-10.725-23.955-23.955c0-13.23,10.725-23.955,23.955-23.955h127.293c8.351,0,16.099,4.349,20.449,11.477 l40.891,67.013l49-68.475c4.392-6.138,11.421-9.847,18.967-10.009c7.536-0.15,14.727,3.242,19.379,9.186l26.634,34.032 l29.205-34.694c4.551-5.408,11.259-8.529,18.326-8.529h97.277c13.23,0,23.955,10.725,23.955,23.955 c0,13.23-10.725,23.955-23.955,23.955h-86.13l-41.029,48.742c-4.649,5.522-11.544,8.636-18.754,8.525 c-7.216-0.129-13.99-3.504-18.438-9.188l-25.098-32.069l-51.447,71.895C229.413,303.884,222.151,307.599,214.442,307.599z" fill="#5f4bb6"/></g><g id="change5_1"><path d="M125.328,36.159c-6.2,0.815-11.886-3.551-12.701-9.751s3.551-11.886,9.751-12.701s11.886,3.551,12.701,9.751 C135.893,29.658,131.527,35.345,125.328,36.159z M374.673,36.159c6.2,0.815,11.886-3.551,12.701-9.751 c0.815-6.2-3.551-11.886-9.751-12.701s-11.886,3.551-12.701,9.751C364.107,29.658,368.473,35.345,374.673,36.159z M249.035,132.617 c6.2,0.815,11.886-3.551,12.701-9.751c0.815-6.2-3.551-11.886-9.751-12.701c-6.2-0.815-11.886,3.551-12.701,9.751 C238.469,126.116,242.835,131.802,249.035,132.617z M249.631,460.306c6.2,0.815,11.886-3.551,12.701-9.751 c0.815-6.2-3.551-11.886-9.751-12.701c-6.2-0.815-11.886,3.551-12.701,9.751S243.431,459.491,249.631,460.306z M473.341,196.95 c6.2,0.815,11.886-3.551,12.701-9.751c0.815-6.2-3.551-11.886-9.751-12.701c-6.2-0.815-11.886,3.551-12.701,9.751 C462.776,190.449,467.141,196.136,473.341,196.95z M25.921,196.95c6.2,0.815,11.886-3.551,12.701-9.751 c0.815-6.2-3.551-11.886-9.751-12.701c-6.2-0.815-11.886,3.551-12.701,9.751C15.355,190.449,19.721,196.136,25.921,196.95z M295.736,184.249c-0.815-6.2-6.501-10.566-12.701-9.751c-6.2,0.815-10.566,6.501-9.751,12.701c0.815,6.2,6.501,10.566,12.701,9.751 S296.55,190.449,295.736,184.249z M164.371,184.249c-0.815-6.2-6.501-10.566-12.701-9.751c-6.2,0.815-10.566,6.501-9.751,12.701 c0.815,6.2,6.501,10.566,12.701,9.751C160.82,196.136,165.186,190.449,164.371,184.249z M341.287,237.696 c-0.815-6.2-6.501-10.566-12.701-9.751c-6.2,0.815-10.566,6.501-9.751,12.701s6.501,10.566,12.701,9.751 C337.736,249.582,342.102,243.896,341.287,237.696z M226.164,275.636c-0.815-6.2-6.501-10.566-12.701-9.751 c-6.2,0.815-10.566,6.501-9.751,12.701s6.501,10.566,12.701,9.751C222.612,287.522,226.978,281.836,226.164,275.636z" fill="#5f4bb6"/></g></svg>