<?xml version="1.0" encoding="UTF-8" standalone="no"?><svg xmlns="http://www.w3.org/2000/svg" xmlns:xlink="http://www.w3.org/1999/xlink" fill="#5f4bb6" height="128.1" preserveAspectRatio="xMidYMid meet" version="1" viewBox="-0.9 -0.1 129.4 128.1" width="129.4" zoomAndPan="magnify"><g id="change1_1"><path d="M25.1,58.8c-3.9-0.9-7.4-3.3-9.8-6.6c-2.6-3.6-3.8-8.1-3.1-12.3c0.2-1.1-0.6-2.1-1.7-2.3c-1.1-0.2-2.1,0.6-2.3,1.7 c-0.8,5.2,0.5,10.8,3.8,15.3c3,4.1,7.3,7,12.1,8.2c0.2,0,0.3,0.1,0.5,0.1c0.9,0,1.7-0.6,1.9-1.5C26.9,60.2,26.2,59.1,25.1,58.8z" fill="inherit"/></g><g id="change1_2"><path d="M43.7,78.6l6.8,9.4c0.7-1.3,1.4-2.5,2.3-3.7l-5.8-8l4.5-3.3l5,7c1-0.9,2-1.8,3.1-2.5l-4.9-6.9c-0.6-0.9-1.5-1.4-2.6-1.6 c-0.3-0.1-0.6-0.1-1,0l-0.2-0.2c-0.7-1-1-2.2-0.7-3.4c1.1-4.8,3.1-15.6,3.2-17c0.6-6.8-1.3-13.7-5.5-19.4 C39,16.6,22.1,13.3,10.4,21.6C5,25.4,1.4,31.3,0.3,38c-1.2,7.3,0.7,15.1,5.3,21.3C9.8,65,15.7,69,22.4,70.5 c1.4,0.3,12.4,1.9,17.3,2.4c1.2,0.1,2.4,0.8,3.1,1.8l0.3,0.4C42.8,76.3,43,77.5,43.7,78.6z M40.2,68.9c-5.2-0.5-15.8-2.1-16.8-2.3 c-5.8-1.4-10.9-4.8-14.5-9.7c-3.9-5.3-5.6-12-4.5-18.3c0.9-5.7,3.9-10.6,8.4-13.8C16.4,22.2,20.7,21,25,21c7.4,0,14.9,3.6,19.8,10.4 c3.6,4.9,5.3,10.8,4.7,16.7c-0.1,1-2,11.4-3.1,16.5c-0.5,2.2-0.1,4.5,1.2,6.4L46,72.1C44.6,70.3,42.5,69.2,40.2,68.9z" fill="inherit"/></g><g id="change1_3"><path d="M52.9,119.1c2.3-1.8,4.1-3.5,5.2-4.6c1.2-1.2,1.9-2.8,1.9-4.5c0-1.7-0.7-3.3-1.9-4.5c-1.1-1.1-2.9-2.8-5.2-4.6 C47.7,96.9,39.4,92,30,92s-17.7,4.9-22.9,8.9c-2.3,1.8-4.1,3.5-5.2,4.6C0.7,106.7,0,108.3,0,110c0,1.7,0.7,3.3,1.9,4.5 c1.1,1.1,2.9,2.8,5.2,4.6c5.3,4.1,13.5,8.9,22.9,8.9S47.7,123.1,52.9,119.1z M50.6,104.5c0-0.1,0.1-0.2,0.1-0.2c2,1.6,3.6,3,4.6,4.1 c0.9,0.9,0.9,2.4,0,3.3c-1.1,1.1-2.6,2.5-4.6,4.1c0-0.1-0.1-0.1-0.1-0.2c-0.4-1.7-0.6-3.6-0.6-5.5S50.2,106.2,50.6,104.5z M9.4,115.5c-0.1,0-0.2,0-0.3,0c-1.9-1.5-3.4-2.9-4.4-3.9c-0.9-0.9-0.9-2.4,0-3.3c1.1-1.1,2.7-2.5,4.6-4.1c0,0.1,0.1,0.1,0.1,0.2 c0.4,1.7,0.6,3.6,0.6,5.5S9.8,113.8,9.4,115.5z M13.3,103.6c-0.1-0.6-0.4-1.2-0.8-1.6c4.7-3.1,10.8-6,17.5-6s12.8,2.8,17.5,6 c-0.4,0.5-0.7,1-0.8,1.6c-0.5,2-0.7,4.2-0.7,6.4s0.2,4.4,0.7,6.4c0.1,0.6,0.4,1.2,0.8,1.6c-4.7,3.1-10.8,6-17.5,6s-12.8-2.8-17.5-6 c0.4-0.5,0.7-1,0.8-1.6c0.5-2,0.7-4.2,0.7-6.4S13.8,105.6,13.3,103.6z" fill="inherit"/></g><g id="change1_4"><path d="M21.3,112.3h0.3v0.3c0,1.1,0.9,2,2,2s2-0.9,2-2v-0.3h2.9v0.3c0,1.1,0.9,2,2,2s2-0.9,2-2v-0.3h2.9v0.3c0,1.1,0.9,2,2,2 s2-0.9,2-2v-0.3h0.3c1.1,0,2-0.9,2-2s-0.9-2-2-2h-0.3V108c0-1.1-0.9-2-2-2s-2,0.9-2,2v0.3h-2.9V108c0-1.1-0.9-2-2-2s-2,0.9-2,2v0.3 h-2.9V108c0-1.1-0.9-2-2-2s-2,0.9-2,2v0.3h-0.3c-1.1,0-2,0.9-2,2S20.2,112.3,21.3,112.3z" fill="inherit"/></g><g id="change1_5"><path d="M73.8,57.6l-1.3,7.6c-0.4,2-0.5,4.1-0.5,6.2v1c1.3-0.2,2.6-0.4,4-0.4v-0.6c0-1.8,0.2-3.7,0.5-5.5l1.3-7.6 c0.8-4.6,1.2-9.4,1.2-14.1V8c0-4.4-3.5-8-7.9-8h-2.3C64.5,0,61,3.6,61,8v36.1c0,4.7,0.4,9.5,1.2,14.1l1.3,7.6 c0.3,1.8,0.5,3.7,0.5,5.5V75c1.3-0.6,2.6-1.2,4-1.6v-2c0-2.1-0.2-4.2-0.5-6.2l-1.3-7.6c-0.8-4.4-1.2-8.9-1.2-13.4V8 c0-2.2,1.7-4,3.9-4h2.3C73.3,4,75,5.8,75,8v36.1C75,48.6,74.6,53.1,73.8,57.6z" fill="inherit"/></g><g id="change1_6"><path d="M125.5,1.8l-3.7-1.5c-1-0.4-2.1-0.4-3.1,0c-1,0.4-1.7,1.2-2.1,2.2l-9,22.3l-7.4,3.9c-0.4,0.2-0.8,0.6-0.9,1L82,72.4 c1.3,0.2,2.7,0.5,3.9,0.9l8.1-20.1l14.6,6l-9.2,22.8c1,1.2,2,2.4,2.8,3.7c0,0,19-47.2,19-47.2c0.2-0.4,0.2-0.9,0-1.4l-2.7-8l9-22.3 C128.5,4.9,127.5,2.6,125.5,1.8z M110.1,28.1c0.1-0.1,0.2-0.1,0.3-0.2l4.2,1.7c0,0.1,0,0.2,0.1,0.3l1.5,4.6l-10.3-4.2L110.1,28.1z M110.2,55.6l-14.6-6l6.6-16.5l14.6,5.9L110.2,55.6z M115.8,25.7l-3.6-1.5L120.3,4l3.7,1.5L115.8,25.7z" fill="inherit"/></g><g id="change1_7"><path d="M102.8,98.9C101.3,86,90.3,76,77,76c-12,0-22.1,8.2-25.1,19.3c0.6,0.4,5.1,3.8,5.3,4c5-2.1,10.8-1.8,15.5,0.7 c-4,4.6-7,9-9,12.6c-0.4,1.6-1.2,3.1-2.4,4.4c-0.1,0.2-3.1,2.9-3.1,2.9c0.7,0.8,1.5,1.5,2.4,2.2c0,0,0.1,0.1,0.1,0.1 c4.5,3.6,10.1,5.8,16.3,5.8c8,0,15.2-3.6,19.9-9.3c-0.6-1.8-0.9-3.7-0.9-5.6c-0.1,0.1-0.1,0.2-0.2,0.3c-3-7.6-6.9-14-11.5-19.2 c0.5-0.5,1.1-0.9,1.6-1.3c0,0,0.1,0.1,0.1,0.1c3.4,3.4,7.8,5.4,12.7,5.9c0.2,1,0.2,2.1,0.2,3.2c0,0.4,0,0.8,0,1.1 C100,101.5,101.3,100.1,102.8,98.9z M77,80c1.1,0,2.1,0.1,3.2,0.2c0.3,3.5,1.5,6.7,3.3,9.5c-0.6,0.5-1.3,1-1.9,1.6 c-5.4-5.1-10.6-7.6-14.4-8.9C70.1,80.9,73.4,80,77,80z M56,95.5c1.2-4,3.6-7.5,6.7-10.2c2.8,0.6,9.2,2.5,15.8,8.7c-1,1-2.1,2-3.1,3 C69.7,93.5,62.3,92.9,56,95.5z M78.6,123.9c-0.5,0-1.1,0.1-1.6,0.1c-4.7,0-9.1-1.5-12.7-4.1c1.6-3.3,5.3-10.2,11.7-17.5 c0.1,0.1,0.2,0.2,0.3,0.3C81.7,108.2,82.7,117.1,78.6,123.9z M93,117.1c-2.6,2.7-5.8,4.8-9.5,5.9c3.1-7.9,1.5-17.2-4.4-23.1 c-0.1-0.1-0.3-0.3-0.4-0.4c0.9-0.9,1.8-1.8,2.7-2.6C86.1,102.1,90,108.9,93,117.1z M84.3,81.3c2.3,0.8,4.4,2,6.2,3.4 c-1.3,0.8-2.6,1.7-3.9,2.6C85.5,85.5,84.7,83.4,84.3,81.3z M89.2,90.4c1.4-1,2.9-2,4.4-2.9c1.8,2.1,3.2,4.5,4.2,7.1 C94.5,94.1,91.5,92.6,89.2,90.4z" fill="inherit"/></g><g id="change1_8"><path d="M114,99c-7.7,0-14,6.3-14,14c0,7.7,6.3,14,14,14s14-6.3,14-14C128,105.3,121.7,99,114,99z M105.8,119.2 c-1.3-1.7-2.1-3.9-2.1-6.2c0-2.3,0.8-4.5,2.1-6.2c1.4,1.8,2.2,3.9,2.2,6.2C108,115.3,107.2,117.4,105.8,119.2z M119.2,121.8 c-1.5,0.9-3.3,1.4-5.2,1.4c-1.9,0-3.6-0.5-5.2-1.4c2-2.5,3.2-5.6,3.2-8.8s-1.1-6.3-3.2-8.8c1.5-0.9,3.3-1.4,5.2-1.4 c1.9,0,3.6,0.5,5.2,1.4c-2,2.5-3.2,5.6-3.2,8.8S117.1,119.3,119.2,121.8z M122.2,119.2c-1.4-1.8-2.2-3.9-2.2-6.2 c0-2.3,0.8-4.4,2.2-6.2c1.3,1.7,2.1,3.9,2.1,6.2C124.2,115.3,123.5,117.5,122.2,119.2z" fill="inherit"/></g></svg>