<?xml version="1.0" encoding="UTF-8" standalone="no"?><svg xmlns="http://www.w3.org/2000/svg" xmlns:xlink="http://www.w3.org/1999/xlink" fill="#000000" height="359.7" preserveAspectRatio="xMidYMid meet" version="1" viewBox="0.0 -0.0 360.8 359.7" width="360.8" zoomAndPan="magnify"><g id="change1_1"><path d="M360.8,180.2L360.8,180.2c0,29.9-24.2,54.1-54.1,54.1h-72h-38.8c-38.3,0-69.4-31.1-69.4-69.4v-38.8v-72 c0-29.9,24.2-54.1,54.1-54.1l0,0c29.9,0,54.1,24.2,54.1,54.1v72h72C336.6,126.1,360.8,150.4,360.8,180.2z" fill="#ffffff"/></g><g id="change2_1"><path d="M0,179.5L0,179.5c0-29.9,24.2-54.1,54.1-54.1h72h38.8c38.3,0,69.4,31.1,69.4,69.4v38.8v72 c0,29.9-24.2,54.1-54.1,54.1l0,0c-29.9,0-54.1-24.2-54.1-54.1v-72h-72C24.2,233.6,0,209.4,0,179.5z" fill="#5299d3"/></g><g id="change3_1"><path d="M234.3,194.8v38.8v0.7h-38.4c-38.3,0-69.4-31.1-69.4-69.4v-38.8v-0.7h38.4 C203.2,125.4,234.3,156.5,234.3,194.8z" fill="#5f4bb6"/></g></svg>